<?xml version="1.0" standalone="no"?><!DOCTYPE svg PUBLIC "-//W3C//DTD SVG 1.1//EN" "http://www.w3.org/Graphics/SVG/1.1/DTD/svg11.dtd"><svg class="icon" width="200px" height="175.79px" viewBox="0 0 1165 1024" version="1.1" xmlns="http://www.w3.org/2000/svg"><path fill="#ffffff" d="M318.640552 103.918345a234.107586 234.107586 0 0 1 233.860414 233.860414h0.211862a35.416276 35.416276 0 1 0 70.903172 0c0-0.247172-0.105931-0.423724-0.105931-0.670897a234.107586 234.107586 0 0 1 233.825103-233.189517 234.107586 234.107586 0 0 1 233.825104 233.860414c0 80.542897-50.493793 142.441931-98.621793 191.099586L587.917241 896.388414 186.862345 531.703172c-61.298759-61.722483-102.117517-118.289655-102.117517-193.924413a234.107586 234.107586 0 0 1 233.860413-233.860414z m269.170758 887.913931l453.56138-411.965793c56.072828-56.637793 120.408276-135.344552 120.408276-242.087724 0-167.90069-136.580414-304.481103-304.445794-304.481104a304.834207 304.834207 0 0 0-269.34731 162.568828A304.834207 304.834207 0 0 0 318.640552 33.297655C150.775172 33.297655 14.159448 169.878069 14.159448 337.778759c0 105.648552 58.968276 179.553103 123.939311 244.912551L587.81131 991.867586z" /></svg>