<?xml version="1.0" standalone="no"?><!DOCTYPE svg PUBLIC "-//W3C//DTD SVG 1.1//EN" "http://www.w3.org/Graphics/SVG/1.1/DTD/svg11.dtd"><svg t="1543478491221" class="icon" style="" viewBox="0 0 1024 1024" version="1.1" xmlns="http://www.w3.org/2000/svg" p-id="799" xmlns:xlink="http://www.w3.org/1999/xlink" width="200" height="200"><defs><style type="text/css"></style></defs><path d="M216.726588 771.252706c72.101647 0 133.029647 39.062588 133.029647 85.323294 0 46.260706-60.928 85.353412-133.029647 85.353412-72.101647 0-133.029647-39.092706-133.029647-85.353412s60.928-85.323294 133.029647-85.323294z m595.245177 88.064c-72.101647 0-133.029647-39.062588-133.029647-85.323294 0-46.260706 60.928-85.323294 133.029647-85.323294 72.101647 0 132.999529 39.062588 132.999529 85.323294 0 46.260706-60.897882 85.323294-132.999529 85.323294zM409.991529 306.808471V151.341176l534.979765-76.709647V230.098824l-534.979765 76.709647zM216.726588 1002.164706c108.363294 0 193.264941-63.969882 193.264941-145.588706V367.646118L944.971294 290.936471v376.771764c-34.424471-24.395294-80.926118-39.273412-132.999529-39.273411-108.363294 0-193.264941 63.939765-193.264941 145.558588s84.901647 145.558588 193.264941 145.558588 193.234824-63.939765 193.234823-145.558588V42.646588h-0.030117c0-0.421647 0.210824-0.783059 0.180705-1.204706A30.268235 30.268235 0 0 0 973.914353 12.348235c-0.963765 0.030118-1.746824 0.512-2.710588 0.632471l-0.39153-2.861177L378.88 94.930824h-0.240941c-0.240941 0-0.451765 0.120471-0.722824 0.150588l-2.409411 0.331294 0.090352 0.210823a29.906824 29.906824 0 0 0-25.840941 29.605647h-0.030117v0.210824c0 0.331294-0.180706 0.632471-0.180706 0.963765 0 0.240941 0.150588 0.421647 0.180706 0.63247v623.254589c-34.424471-24.395294-80.956235-39.273412-133.029647-39.273412-108.363294 0-193.264941 63.939765-193.264942 145.558588s84.901647 145.588706 193.264942 145.588706z" p-id="800"></path></svg>